HIERARCHY
ROOT Hips
{
  OFFSET 47.5263 84.1758 13.2849
  CHANNELS 6 Xposition Yposition Zposition Zrotation Xrotation Yrotation
  JOINT spine
  {
    OFFSET 0 6.2448 0.359107
    CHANNELS 3 Zrotation Xrotation Yrotation
    JOINT spine1
    {
      OFFSET 0 9.06941 0
      CHANNELS 3 Zrotation Xrotation Yrotation
      JOINT spine2
      {
        OFFSET 0 8.69014 0
        CHANNELS 3 Zrotation Xrotation Yrotation
        JOINT Neck
        {
          OFFSET 0 22.3112 1.06372
          CHANNELS 3 Zrotation Xrotation Yrotation
          JOINT Head
          {
            OFFSET 0 6.74081 0
            CHANNELS 3 Zrotation Xrotation Yrotation
            End Site
            {
              OFFSET 0 16.3165 -5.38097
            }
          }
        }
        JOINT RightShoulder
        {
          OFFSET -3.65916 9.38468 -0.509514
          CHANNELS 3 Zrotation Xrotation Yrotation
          JOINT RightArm
          {
            OFFSET 0 12.3089 0
            CHANNELS 3 Zrotation Xrotation Yrotation
            JOINT RightArmRoll
            {
              OFFSET 0 6.21375 0
              CHANNELS 3 Zrotation Xrotation Yrotation
              JOINT RightForeArm
              {
                OFFSET 0 18.0985 0
                CHANNELS 3 Zrotation Xrotation Yrotation
                JOINT RightForeArmRoll
                {
                  OFFSET 0 6.97279 0
                  CHANNELS 3 Zrotation Xrotation Yrotation
                  JOINT RightHand
                  {
                    OFFSET 0 13.9929 0
                    CHANNELS 3 Zrotation Xrotation Yrotation
                    End Site
                    {
                      OFFSET 0 0 0
                    }
                  }
                }
              }
            }
          }
        }
        JOINT LeftShoulder
        {
          OFFSET 3.65916 9.38468 -0.509514
          CHANNELS 3 Zrotation Xrotation Yrotation
          JOINT LeftArm
          {
            OFFSET 0 12.3089 0
            CHANNELS 3 Zrotation Xrotation Yrotation
            JOINT LeftArmRoll
            {
              OFFSET 0 6.21375 0
              CHANNELS 3 Zrotation Xrotation Yrotation
              JOINT LeftForeArm
              {
                OFFSET 0 18.0985 0
                CHANNELS 3 Zrotation Xrotation Yrotation
                JOINT LeftForeArmRoll
                {
                  OFFSET 0 6.9728 0
                  CHANNELS 3 Zrotation Xrotation Yrotation
                  JOINT LeftHand
                  {
                    OFFSET 0 13.9929 0
                    CHANNELS 3 Zrotation Xrotation Yrotation
                    End Site
                    {
                      OFFSET 0 0 0
                    }
                  }
                }
              }
            }
          }
        }
      }
    }
  }
  JOINT RightUpLeg
  {
    OFFSET -5.53516 -1.015 -0.851454
    CHANNELS 3 Zrotation Xrotation Yrotation
    JOINT RightUpLegRoll
    {
      OFFSET 0 16.4075 0
      CHANNELS 3 Zrotation Xrotation Yrotation
      JOINT RightLeg
      {
        OFFSET 0 -20.3181 0
        CHANNELS 3 Zrotation Xrotation Yrotation
        JOINT RightLegRoll
        {
          OFFSET 0 20.3846 0
          CHANNELS 3 Zrotation Xrotation Yrotation
          JOINT RightFoot
          {
            OFFSET 0 16.9668 0
            CHANNELS 3 Zrotation Xrotation Yrotation
            JOINT RightToeBase
            {
              OFFSET 0 14.1834 0
              CHANNELS 3 Zrotation Xrotation Yrotation
              End Site
              {
                OFFSET 0.0060118 6.8689 -0.791746
              }
            }
          }
        }
      }
    }
  }
  JOINT LeftUpLeg
  {
    OFFSET 5.53516 -1.015 -0.851454
    CHANNELS 3 Zrotation Xrotation Yrotation
    JOINT LeftUpLegRoll
    {
      OFFSET 0 16.4076 0
      CHANNELS 3 Zrotation Xrotation Yrotation
      JOINT LeftLeg
      {
        OFFSET 0 20.3181 0
        CHANNELS 3 Zrotation Xrotation Yrotation
        JOINT LeftLegRoll
        {
          OFFSET 0 20.5731 0
          CHANNELS 3 Zrotation Xrotation Yrotation
          JOINT LeftFoot
          {
            OFFSET 0 16.7783 0
            CHANNELS 3 Zrotation Xrotation Yrotation
            JOINT LeftToeBase
            {
              OFFSET 0 14.1834 0
              CHANNELS 3 Zrotation Xrotation Yrotation
              End Site
              {
                OFFSET -0.0269423 6.86889 -0.791746
              }
            }
          }
        }
      }
    }
  }
}
MOTION
Frames: 11
Frame Time: 0.00208333
46.7387 84.1483 13.4677 -0.337012 0.115413 -4.22754 -0.257415 -1.39955 0.0927363 -0.51326 1.19767 0.2238 -0.516164 2.84269 0.232511 8.08595 4.51563 -0.401791 -3.65977 -0.717546 1.30895 69.1016 -0.194508 -1.25919 118.689 31.6623 -51.7957 6.18792e-007 -1.44516e-005 -1.23741e-005 -161.516 86.4496 153.021 -5.09628e-006 2.69547e-006 -3 8.03009 -4.95125 0.697601 -59.4094 -8.49896 5.27714 -124.752 26.9526 54.8784 6.36111e-015 -1.27222e-014 -0 -22.7857 85.5419 28.3706 8.22934e-006 8.2099e-006 3.00001 -8.03021 -4.9511 -0.697571 177.105 7.59504 0.147449 180 7.01596e-015 179.162 179.343 11.8478 179.049 6.41127e-007 1.71655e-006 0.138668 -16.2386 69.3714 20.6124 8.13649 25.2327 -3.48774 -175.442 1.24787 -2.97136 4.54188e-006 -4.6773e-006 -1.01483 -0.98805 -11.7364 0.755012 -2.07562e-006 2.90996e-007 -0.329162 23.4686 73.4221 -25.3901 -8.13656 25.2337 3.48635 
46.7407 84.1468 13.4601 -0.338442 0.106828 -4.23245 -0.25757 -1.39943 0.0928162 -0.513508 1.19815 0.223309 -0.516415 2.84317 0.232022 8.0821 4.55639 -0.403682 -3.66111 -0.72246 1.30848 69.0971 -0.198806 -1.26089 118.641 31.6717 -51.6752 6.18792e-007 -1.44516e-005 -1.23741e-005 -161.564 86.4347 153.066 -5.09628e-006 2.69547e-006 -3 8.03009 -4.95125 0.697601 -59.399 -8.49842 5.27659 -124.706 26.9636 54.7983 -1.27222e-014 -1.27222e-014 2.22639e-014 -22.6684 85.5512 28.2586 8.22934e-006 8.2099e-006 3.00001 -8.03021 -4.9511 -0.697571 177.116 7.59857 0.128544 180 7.01596e-015 179.162 179.367 11.8601 179.043 6.41127e-007 1.71655e-006 0.138668 -16.2187 69.3679 20.6078 8.13649 25.2327 -3.48774 -175.439 1.25195 -2.97355 4.54188e-006 -4.6773e-006 -1.01402 -0.988179 -11.7511 0.755911 -2.07562e-006 2.90996e-007 -0.328452 23.4518 73.424 -25.3892 -8.13656 25.2337 3.48635 
46.7451 84.1513 13.4617 -0.339953 0.098766 -4.23747 -0.257708 -1.39941 0.092904 -0.513708 1.19844 0.222811 -0.516619 2.84346 0.231526 8.07852 4.59735 -0.405575 -3.66254 -0.727737 1.30807 69.093 -0.202877 -1.2625 118.594 31.6803 -51.5559 6.18792e-007 -1.44516e-005 -1.23741e-005 -161.61 86.4196 153.108 -5.09628e-006 2.69547e-006 -3 8.03009 -4.95125 0.697601 -59.3885 -8.49776 5.27597 -124.659 26.9741 54.7194 -6.36111e-015 9.54166e-015 -0 -22.5506 85.5596 28.1459 8.22934e-006 8.2099e-006 3.00001 -8.03021 -4.9511 -0.697571 177.128 7.60281 0.108567 180 7.01596e-015 179.162 179.391 11.8727 179.037 6.41127e-007 1.71655e-006 0.138668 -16.1979 69.3642 20.6029 8.13649 25.2327 -3.48774 -175.435 1.25701 -2.97579 4.54188e-006 -4.6773e-006 -1.01318 -0.988317 -11.7665 0.756837 -2.07562e-006 2.90996e-007 -0.327741 23.4347 73.4262 -25.3885 -8.13656 25.2337 3.48635 
46.7453 84.1496 13.4442 -0.341521 0.0910702 -4.24256 -0.257835 -1.39946 0.0929975 -0.513875 1.19859 0.222309 -0.51679 2.84361 0.231025 8.07513 4.63847 -0.407468 -3.66404 -0.733268 1.30768 69.0891 -0.206787 -1.26405 118.548 31.6883 -51.4374 6.18792e-007 -1.44516e-005 -1.23741e-005 -161.654 86.4044 153.15 -5.09628e-006 2.69547e-006 -3 8.03009 -4.95125 0.697601 -59.3779 -8.49701 5.27529 -124.613 26.9842 54.6412 -9.54166e-015 9.54166e-015 -3.18055e-015 -22.4324 85.5674 28.0326 8.22934e-006 8.2099e-006 3.00001 -8.03021 -4.9511 -0.697571 177.14 7.60753 0.08784 180 7.01596e-015 179.162 179.416 11.8854 179.031 6.41127e-007 1.71655e-006 0.138668 -16.1766 69.3604 20.5979 8.13649 25.2327 -3.48774 -175.431 1.26275 -2.97808 4.54188e-006 -4.6773e-006 -1.01233 -0.988462 -11.7824 0.757783 -2.07562e-006 2.90996e-007 -0.327029 23.4173 73.4284 -25.3879 -8.13656 25.2337 3.48635 
46.7433 84.1462 13.4365 -0.343122 0.0835838 -4.2477 -0.257956 -1.39956 0.0930942 -0.514023 1.19866 0.221805 -0.516942 2.84368 0.230521 8.07186 4.67966 -0.409363 -3.66557 -0.738945 1.30732 69.0853 -0.210607 -1.26558 118.501 31.6958 -51.3193 6.18792e-007 -1.44516e-005 -1.23741e-005 -161.698 86.3891 153.19 -5.09628e-006 2.69547e-006 -3 8.03009 -4.95125 0.697601 -59.3673 -8.49621 5.27458 -124.567 26.9942 54.5634 -9.54166e-015 -9.54166e-015 -0 -22.3138 85.5749 27.9188 8.22934e-006 8.2099e-006 3.00001 -8.03021 -4.9511 -0.697571 177.153 7.61254 0.0666845 180 7.01596e-015 179.162 179.442 11.8981 179.025 6.41127e-007 1.71655e-006 0.138668 -16.1549 69.3564 20.5927 8.13649 25.2327 -3.48774 -175.428 1.26888 -2.98038 4.54188e-006 -4.6773e-006 -1.01146 -0.988609 -11.7986 0.758741 -2.07562e-006 2.90996e-007 -0.326317 23.3998 73.4308 -25.3873 -8.13656 25.2337 3.48635 
46.7474 84.1461 13.4239 -0.344731 0.0761499 -4.25285 -0.258075 -1.39966 0.0931916 -0.514167 1.19871 0.221299 -0.51709 2.84373 0.230016 8.06862 4.72088 -0.411258 -3.66711 -0.744658 1.30696 69.0815 -0.214403 -1.26709 118.454 31.703 -51.2012 6.18792e-007 -1.44516e-005 -1.23741e-005 -161.741 86.3738 153.23 -5.09628e-006 2.69547e-006 -3 8.03009 -4.95125 0.697601 -59.3566 -8.49541 5.27387 -124.521 27.004 54.4857 3.18055e-015 -3.18055e-015 6.36111e-015 -22.1949 85.5823 27.8045 8.22934e-006 8.2099e-006 3.00001 -8.03021 -4.9511 -0.697571 177.165 7.61762 0.0454214 180 7.01596e-015 179.162 179.468 11.9109 179.019 6.41127e-007 1.71655e-006 0.138668 -16.1331 69.3524 20.5875 8.13649 25.2327 -3.48774 -175.424 1.27511 -2.98269 4.54188e-006 -4.6773e-006 -1.01059 -0.988757 -11.8148 0.759701 -2.07562e-006 2.90996e-007 -0.325605 23.3823 73.4332 -25.3868 -8.13656 25.2337 3.48635 
46.7518 84.1508 13.4178 -0.346327 0.0686114 -4.25797 -0.258198 -1.39974 0.0932875 -0.51432 1.1988 0.220795 -0.517247 2.84381 0.229513 8.06532 4.76206 -0.413154 -3.66864 -0.750298 1.30659 69.0777 -0.218246 -1.26862 118.408 31.71 -51.0829 6.18792e-007 -1.44516e-005 -1.23741e-005 -161.785 86.3586 153.27 -5.09628e-006 2.69547e-006 -3 8.03009 -4.95125 0.697601 -59.346 -8.49462 5.27317 -124.475 27.0137 54.4077 -1.59028e-014 0 -0 -22.0756 85.5899 27.69 8.22934e-006 8.2099e-006 3.00001 -8.03021 -4.9511 -0.697571 177.178 7.62255 0.024372 180 7.01596e-015 179.162 179.494 11.9237 179.012 6.41127e-007 1.71655e-006 0.138668 -16.1116 69.3484 20.5823 8.13649 25.2327 -3.48774 -175.42 1.28114 -2.98498 4.54188e-006 -4.6773e-006 -1.00973 -0.988903 -11.8309 0.760656 -2.07562e-006 2.90996e-007 -0.324893 23.3649 73.4356 -25.3863 -8.13656 25.2337 3.48635 
46.7561 84.1523 13.4075 -0.347884 0.0608114 -4.26305 -0.258328 -1.39977 0.0933793 -0.514496 1.19898 0.220295 -0.517427 2.844 0.229013 8.06189 4.80313 -0.415049 -3.67012 -0.755756 1.3062 69.0737 -0.222202 -1.2702 118.361 31.7172 -50.9639 6.18792e-007 -1.44516e-005 -1.23741e-005 -161.828 86.3434 153.311 -5.09628e-006 2.69547e-006 -3 8.03009 -4.95125 0.697601 -59.3354 -8.4939 5.2725 -124.429 27.0235 54.3291 -1.27222e-014 6.36111e-015 -9.54166e-015 -21.9558 85.5978 27.5751 8.22934e-006 8.2099e-006 3.00001 -8.03021 -4.9511 -0.697571 177.19 7.62713 0.00385758 180 7.01596e-015 179.162 179.519 11.9364 179.006 6.41127e-007 1.71655e-006 0.138667 -16.0904 69.3446 20.5773 8.13649 25.2327 -3.48774 -175.416 1.28668 -2.98725 4.54188e-006 -4.6773e-006 -1.00888 -0.989043 -11.8467 0.761597 -2.07562e-006 2.90996e-007 -0.324181 23.3476 73.4378 -25.3857 -8.13656 25.2337 3.48635 
46.761 84.1526 13.3959 -0.34938 0.0525931 -4.26803 -0.258472 -1.39973 0.0934648 -0.51471 1.19933 0.219799 -0.517645 2.84435 0.22852 8.05825 4.84404 -0.416944 -3.67152 -0.760924 1.30577 69.0694 -0.226341 -1.27183 118.314 31.7244 -50.8437 6.18792e-007 -1.44516e-005 -1.23741e-005 -161.872 86.3283 153.352 -5.09628e-006 2.69547e-006 -3 8.03009 -4.95125 0.697601 -59.3249 -8.49327 5.2719 -124.383 27.0334 54.2496 -9.54166e-015 6.36111e-015 -3.18055e-015 -21.8354 85.6063 27.46 8.22934e-006 8.2099e-006 3.00001 -8.03021 -4.9511 -0.697571 177.201 7.63115 -0.0158005 180 7.01596e-015 179.162 179.543 11.9488 179 6.41127e-007 1.71655e-006 0.138667 -16.0699 69.341 20.5725 8.13649 25.2327 -3.48774 -175.412 1.29144 -2.98948 4.54188e-006 -4.6773e-006 -1.00805 -0.989176 -11.8619 0.762516 -2.07562e-006 2.90996e-007 -0.323471 23.3305 73.4399 -25.3848 -8.13656 25.2337 3.48635 
46.763 84.1512 13.386 -0.35079 0.0437995 -4.2729 -0.258633 -1.39957 0.0935414 -0.514976 1.19989 0.219311 -0.517915 2.84491 0.228034 8.0543 4.88471 -0.418838 -3.67283 -0.765693 1.30528 69.0649 -0.23073 -1.27356 118.267 31.7321 -50.7222 6.18792e-007 -1.44516e-005 -1.23741e-005 -161.917 86.3135 153.395 -5.09628e-006 2.69547e-006 -3 8.03009 -4.95125 0.697601 -59.3146 -8.49278 5.27139 -124.336 27.0436 54.1688 -3.18055e-015 -3.18055e-015 6.36111e-015 -21.7145 85.6157 27.3446 8.22934e-006 8.2099e-006 3.00001 -8.03021 -4.9511 -0.697571 177.212 7.63439 -0.0342808 180 7.01596e-015 179.162 179.566 11.9611 178.995 6.41127e-007 1.71655e-006 0.138667 -16.0503 69.3376 20.568 8.13649 25.2327 -3.48774 -175.409 1.29513 -2.99165 4.54188e-006 -4.6773e-006 -1.00725 -0.989297 -11.8763 0.763405 -2.07562e-006 2.90996e-007 -0.322761 23.3138 73.4417 -25.3838 -8.13656 25.2337 3.48635 
46.7571 84.1538 13.3784 -0.352091 0.0342737 -4.27761 -0.258816 -1.39927 0.0936068 -0.515309 1.20073 0.218831 -0.51825 2.84575 0.227558 8.04998 4.92508 -0.420731 -3.67401 -0.769953 1.30471 69.0599 -0.235439 -1.2754 118.219 31.7403 -50.5988 6.18792e-007 -1.44516e-005 -1.23741e-005 -161.963 86.2988 153.439 -5.09628e-006 2.69547e-006 -3 8.03009 -4.95125 0.697601 -59.3045 -8.49246 5.27099 -124.29 27.0542 54.0864 -9.54166e-015 3.18055e-015 -3.18055e-015 -21.5927 85.6262 27.2288 8.22934e-006 8.2099e-006 3.00001 -8.03021 -4.9511 -0.697571 177.222 7.63665 -0.0512619 180 7.01596e-015 179.162 179.588 11.973 178.989 6.41127e-007 1.71655e-006 0.138668 -16.0319 69.3347 20.5639 8.13649 25.2327 -3.48774 -175.406 1.29745 -2.99375 4.54188e-006 -4.6773e-006 -1.00649 -0.989405 -11.8898 0.764256 -2.07562e-006 2.90996e-007 -0.322053 23.2975 73.4432 -25.3825 -8.13656 25.2337 3.48635 
